<svg xmlns="http://www.w3.org/2000/svg" viewBox="0 0 25.32 28.98"><defs><style>.a{fill:#787878;}</style></defs><title>client</title><path class="a" d="M5.5,7.29A7.29,7.29,0,1,0,12.79,0h0A7.29,7.29,0,0,0,5.5,7.29Z"/><path class="a" d="M24.37,21.08a1.38,1.38,0,0,1,.2,0,11.18,11.18,0,0,0-6.2-5.91,1.28,1.28,0,0,0-.51-.06,1.28,1.28,0,0,0-1.18.46c-.14.17-.28.33-.43.48a5.28,5.28,0,0,1-3.59,1.51A5.28,5.28,0,0,1,9.07,16a4.91,4.91,0,0,1-.43-.48,1.28,1.28,0,0,0-1.18-.46,1.26,1.26,0,0,0-.51.06,11.18,11.18,0,0,0-6.2,5.91,1.38,1.38,0,0,1,.2,0A11.16,11.16,0,0,0,0,25.57v2.1A1.31,1.31,0,0,0,1.31,29H24a1.31,1.31,0,0,0,1.31-1.31v-2.1A11.16,11.16,0,0,0,24.37,21.08Z"/></svg>