<svg xmlns="http://www.w3.org/2000/svg" viewBox="0 0 63.11 58.45"><defs><style>.a{fill:#787878;}</style></defs><title>clients</title><path class="a" d="M24.51,36.76a7.29,7.29,0,1,0,7.29-7.29h0A7.29,7.29,0,0,0,24.51,36.76Z"/><path class="a" d="M43.39,50.55l.19,0a11.19,11.19,0,0,0-6.19-5.91,1.28,1.28,0,0,0-.51-.06,1.33,1.33,0,0,0-1.19.45,4.87,4.87,0,0,1-.43.49,5,5,0,0,1-7.17,0,4.87,4.87,0,0,1-.43-.49,1.31,1.31,0,0,0-1.19-.45,1.28,1.28,0,0,0-.51.06,11.19,11.19,0,0,0-6.19,5.91,1.38,1.38,0,0,1,.2,0A11,11,0,0,0,19,55v2.1a1.31,1.31,0,0,0,1.31,1.31H43a1.31,1.31,0,0,0,1.31-1.31V55A11.16,11.16,0,0,0,43.39,50.55Z"/><path class="a" d="M5.5,7.29A7.29,7.29,0,1,0,12.79,0h0A7.29,7.29,0,0,0,5.5,7.29Z"/><path class="a" d="M24.37,21.08a1.38,1.38,0,0,1,.2,0,11.18,11.18,0,0,0-6.2-5.91,1.28,1.28,0,0,0-.51-.06,1.28,1.28,0,0,0-1.18.46c-.14.17-.28.33-.43.48a5.28,5.28,0,0,1-3.59,1.51A5.28,5.28,0,0,1,9.07,16a4.91,4.91,0,0,1-.43-.48,1.28,1.28,0,0,0-1.18-.46,1.26,1.26,0,0,0-.51.06,11.18,11.18,0,0,0-6.2,5.91,1.38,1.38,0,0,1,.2,0A11.16,11.16,0,0,0,0,25.57v2.1A1.31,1.31,0,0,0,1.31,29H24a1.31,1.31,0,0,0,1.31-1.31v-2.1A11.16,11.16,0,0,0,24.37,21.08Z"/><path class="a" d="M43.29,7.29A7.29,7.29,0,1,0,50.58,0h0A7.29,7.29,0,0,0,43.29,7.29Z"/><path class="a" d="M62.16,21.08a1.38,1.38,0,0,1,.2,0,11.19,11.19,0,0,0-6.19-5.91,1.28,1.28,0,0,0-.51-.06,1.29,1.29,0,0,0-1.19.46A4.91,4.91,0,0,1,54,16a5,5,0,0,1-7.17,0,5,5,0,0,1-.44-.48,1.85,1.85,0,0,0-1.69-.4,11.16,11.16,0,0,0-6.19,5.91l.19,0a11.16,11.16,0,0,0-1,4.49v2.1A1.31,1.31,0,0,0,39.1,29H61.8a1.31,1.31,0,0,0,1.31-1.31v-2.1A11.16,11.16,0,0,0,62.16,21.08Z"/></svg>