<svg xmlns="http://www.w3.org/2000/svg" viewBox="0 0 40.25 36.49"><defs><style>.a{fill:#777;}</style></defs><title>closed</title><circle class="a" cx="33.27" cy="27.52" r="1.86"/><ellipse class="a" cx="22.91" cy="26.88" rx="5.94" ry="5.1"/><circle class="a" cx="13.02" cy="26.88" r="1.97"/><path class="a" d="M29.77,13.3a2,2,0,0,0,.78-2.56,2.22,2.22,0,0,0-2.82-.85,2,2,0,0,0-.85,2.54,2,2,0,0,0,2.69,1Z"/><path class="a" d="M40,27.8V17h-34V36.49H40.25v-9ZM13.16,34l-.92-.84V32.9a1.93,1.93,0,0,0-1.88-2H10L8.48,29.44V23.83l1.2-1.2H10a1.91,1.91,0,0,0,2-1.69v-.29l1.41-1.41h18.8l2.2,2.21v.26a1.82,1.82,0,0,0,1.76,1.86h.36l.89.89v5.9l-.49.49H36.3a1.94,1.94,0,0,0-2,1.88v.38l-.85.84Z"/><path class="a" d="M3.69,17A2.35,2.35,0,0,1,6,14.62h1v-.19L24.88,4.7,26.29,5v.28a2.21,2.21,0,0,0,2.82.85l.29-.28,1.41.84L34,12.45l-.28,1.41h-.28c-.56.29-.85.57-.85,1.13h6l-4-7L30,0l-8.2,4L8.2,11.33,0,15.56l3.38,6.22Z"/><path class="a" d="M17.25,11.61a6.09,6.09,0,0,0-2.82,3.1h11c0-.56-.28-.85-.56-1.41a5.48,5.48,0,0,0-7.54-1.77Z"/></svg>