<svg xmlns="http://www.w3.org/2000/svg" viewBox="0 0 33.83 33.83"><defs><style>.a{fill:#777;}</style></defs><title>contacts</title><path class="a" d="M1.41,28.19H26.78c1.41,0,1.41,0,1.41-1.41V1.41C28.19,0,28.19,0,26.78,0H1.41C0,0,0,0,0,1.41V26.78C0,28.19,0,28.19,1.41,28.19Zm5.64,5.64H32.42c1.41,0,1.41,0,1.41-1.41V7.05c0-1.41,0-1.41-1.41-1.41H31V31H5.64v1.41C5.64,33.83,5.64,33.83,7.05,33.83ZM5.07,24s-.79-3.41.82-4.28l4.6-2.46c.87-.48,1.18-1,1.18-1.49,0-1.16-2.09-2.73-2.09-6.23,0-2.62,1.39-5.27,4.54-5.27,2.85,0,4.51,2.14,4.51,5.27,0,3.75-2.14,5.24-2.14,6.31,0,.45.4.93,1.24,1.41l4.6,2.46c1.6.87.81,4.28.81,4.28Z"/></svg>