<svg xmlns="http://www.w3.org/2000/svg" viewBox="0 0 32.73 35.81"><defs><style>.a{fill:#787878;}</style></defs><title>export-contacts</title><path class="a" d="M5.5,7.29A7.29,7.29,0,1,0,12.79,0h0A7.29,7.29,0,0,0,5.5,7.29Z"/><path class="a" d="M24.57,21.05a11.18,11.18,0,0,0-6.2-5.91,1.32,1.32,0,0,0-1.48.44l-.35.39a5.28,5.28,0,0,1-7.47,0,4.91,4.91,0,0,1-.43-.48,1.31,1.31,0,0,0-1.48-.4A11.17,11.17,0,0,0,0,25.57v2.1A1.31,1.31,0,0,0,1.31,29h16.4c0-.06,0-.11,0-.17A7.83,7.83,0,0,1,24.57,21.05Z"/><path class="a" d="M25.9,22.15A6.83,6.83,0,1,0,32.73,29,6.83,6.83,0,0,0,25.9,22.15ZM30,29.68c-.73.81-1.63,1.61-2.41,2.42a1,1,0,0,1-1.38-1.37L27,30H22.49a1,1,0,1,1,0-1.95H27l-.78-.78a1,1,0,0,1,0-1.37,1,1,0,0,1,.69-.29h0a1,1,0,0,1,.69.29c.79.8,1.67,1.63,2.41,2.43a.94.94,0,0,1,.32.7A1,1,0,0,1,30,29.68Z"/></svg>