<svg xmlns="http://www.w3.org/2000/svg" viewBox="0 0 41.59 39.8"><defs><style>.a{fill:#787878;}</style></defs><title>feedback</title><path class="a" d="M18.37,26a1.3,1.3,0,0,0-1.48.43l-.35.4a5.29,5.29,0,0,1-7.47,0,4.91,4.91,0,0,1-.43-.48A1.29,1.29,0,0,0,7.16,26,11.16,11.16,0,0,0,0,36.4v2.09A1.31,1.31,0,0,0,1.31,39.8H24.22a1.31,1.31,0,0,0,1.31-1.31V36.4A11.16,11.16,0,0,0,18.37,26Z"/><path class="a" d="M5.5,18.11a7.29,7.29,0,1,0,7.29-7.29h0A7.29,7.29,0,0,0,5.5,18.11Z"/><path class="a" d="M31,0a10.9,10.9,0,0,0-8.85,17.37l-1.31,3.05a1.31,1.31,0,0,0,.67,1.73,1.46,1.46,0,0,0,.55.11h.22l5.23-.92A10.91,10.91,0,0,0,33.87.47,11.33,11.33,0,0,0,31,0Z"/></svg>