<svg xmlns="http://www.w3.org/2000/svg" viewBox="0 0 42.17 42.09"><defs><style>.a{fill:#787878;}</style></defs><title>phone</title><path class="a" d="M34.91,23.08l6.63-5.64a2,2,0,0,0,0-3L34.91,8.84C34,8,31.77,7.65,31.77,8.72v4.65H21.41a2.58,2.58,0,0,0-2.67,2.49,2.59,2.59,0,0,0,2.67,2.5H31.77V23c0,.73,2.16.81,3.14.12Z"/><path class="a" d="M34.33,31.21c-1.13-1.42-3-3.48-4.54-3.68-.95-.12-2.05.67-3.14,1.42-.21.11-1.84,1.08-2,1.14A5.31,5.31,0,0,1,20,29.24a61.1,61.1,0,0,1-5-5.4,59.52,59.52,0,0,1-4.09-6.1,5,5,0,0,1,.3-4.61c.1-.17,1.31-1.42,1.59-1.71l0,.05c1-.85,2.06-1.71,2.17-2.63.2-1.55-1.38-3.8-2.51-5.23S9.59-.32,7.2,0a6.66,6.66,0,0,0-2.43.9l0,0L4.62,1,4.55,1h0c-.44.34-1.69,1.27-1.83,1.4C1.18,3.83-1.15,7.07.65,12.89,2,17.22,4.84,22.31,8.72,27.45l0,0c.19.25.39.48.58.72l.56.73,0,0c4.12,5,8.44,8.93,12.38,11.27,5.31,3.15,9.08,1.73,10.82.6.17-.11,1.41-1.08,1.84-1.4h0l0-.05s.1-.08.12-.09l0,0a6.48,6.48,0,0,0,1.51-2.11c.92-2.19-1.11-4.47-2.24-5.9Z"/></svg>