<svg xmlns="http://www.w3.org/2000/svg" viewBox="0 0 38.1 36.89"><defs><style>.a{fill:#787878;}</style></defs><title>referals</title><path class="a" d="M34.94,22.29c0-.44.05-.89.05-1.34A15.94,15.94,0,0,0,25.83,6.52a6.78,6.78,0,0,0-13.55,0A16,16,0,0,0,3.11,21c0,.44,0,.89.06,1.34A6.78,6.78,0,0,0,10,34a15.89,15.89,0,0,0,18.21,0,6.64,6.64,0,0,0,3.16.79,7.09,7.09,0,0,0,1.76-.23,6.79,6.79,0,0,0,1.86-12.3ZM19.06,3.54A3.24,3.24,0,0,1,22.3,6.78a3.92,3.92,0,0,1-.05.59,3.25,3.25,0,0,1-6.39,0,3.92,3.92,0,0,1,0-.59A3.25,3.25,0,0,1,19.06,3.54Zm-10.19,27a4.21,4.21,0,0,1-.47.32,3.25,3.25,0,0,1-3.25-5.62A3.32,3.32,0,0,1,5.69,25a3.25,3.25,0,0,1,3.19,5.54ZM23.33,32.6a12.56,12.56,0,0,1-8.55,0,12.3,12.3,0,0,1-2.19-1.06A6.79,6.79,0,0,0,6.65,21.25V21A12.28,12.28,0,0,1,8.92,13.8a12.61,12.61,0,0,1,4.19-3.74,6.79,6.79,0,0,0,11.89,0A12.42,12.42,0,0,1,31.46,21c0,.1,0,.2,0,.3a6.78,6.78,0,0,0-5.93,10.29A13,13,0,0,1,23.33,32.6Zm10.81-2.94h0a3.24,3.24,0,0,1-2,1.51,3.19,3.19,0,0,1-2.47-.33,2.86,2.86,0,0,1-.47-.33A3.24,3.24,0,0,1,32.42,25a3.69,3.69,0,0,1,.53.24A3.26,3.26,0,0,1,34.14,29.66Z"/></svg>