<svg xmlns="http://www.w3.org/2000/svg" viewBox="0 0 31.69 31.69"><defs><style>.a{fill:#787878;}</style></defs><title>settings</title><path class="a" d="M31.69,18.48V13.22l-3-.55A13,13,0,0,0,27.15,9L28.91,6.5,25.19,2.78,22.67,4.54A13,13,0,0,0,19,3l-.55-3H13.22l-.55,3A13,13,0,0,0,9,4.54L6.5,2.78,2.78,6.5,4.54,9A13,13,0,0,0,3,12.67l-3,.55v5.26L3,19a12.85,12.85,0,0,0,1.51,3.64L2.78,25.19,6.5,28.91,9,27.15a13,13,0,0,0,3.64,1.51l.55,3h5.25l.55-3a12.85,12.85,0,0,0,3.64-1.51l2.53,1.76,3.72-3.72-1.76-2.52A13,13,0,0,0,28.66,19Zm-7.22-2.63a8.63,8.63,0,1,1-8.62-8.63A8.62,8.62,0,0,1,24.47,15.85Z"/></svg>