<svg xmlns="http://www.w3.org/2000/svg" viewBox="0 0 42.36 42.3"><defs><style>.a{fill:#787878;}</style></defs><title>text-message</title><path class="a" d="M38,0H4.38A4.42,4.42,0,0,0,0,4.45V27a4.42,4.42,0,0,0,4.38,4.45H19.94L33.19,42.3V31.45H38A4.43,4.43,0,0,0,42.36,27V4.45A4.43,4.43,0,0,0,38,0Zm1.73,27A1.77,1.77,0,0,1,38,28.8H30.55v7.91L20.89,28.8H4.38A1.77,1.77,0,0,1,2.65,27V4.45a1.77,1.77,0,0,1,1.73-1.8H38a1.77,1.77,0,0,1,1.73,1.8Z"/><path class="a" d="M12.81,15.35a4.1,4.1,0,1,0-4.14-4.09A4.12,4.12,0,0,0,12.81,15.35Zm0-5.54a1.45,1.45,0,1,1-1.5,1.45A1.47,1.47,0,0,1,12.81,9.81Z"/><path class="a" d="M15.41,16.28h-5.2s-3.74.07-3.74,3.46V23.9H19.15V19.74C19.15,16.33,15.41,16.28,15.41,16.28Zm1.09,5H9.11V19.74c0-.21,0-.74,1.15-.81h5.13c.42,0,1.11.13,1.11.81Z"/><rect class="a" x="23.29" y="7.73" width="12.6" height="2.65"/><rect class="a" x="23.29" y="14.21" width="12.6" height="2.65"/><rect class="a" x="23.29" y="20.68" width="12.6" height="2.65"/></svg>