<svg xmlns="http://www.w3.org/2000/svg" viewBox="0 0 16 20"><defs><style>.a{fill:none;}</style></defs><title>trash-can</title><path class="a" d="M8,18a.5.5,0,0,0,.5-.5V6.5a.5.5,0,0,0-1,0v11A.5.5,0,0,0,8,18Z"/><path class="a" d="M8,6a.5.5,0,0,0-.5.5v11a.5.5,0,0,0,1,0V6.5A.5.5,0,0,0,8,6Z"/><path class="a" d="M5,6.5A.52.52,0,0,0,4.5,6,.48.48,0,0,0,4,6.48v0l.46,11A.52.52,0,0,0,5,18a.48.48,0,0,0,.48-.48v0Z"/><path d="M1,4l.73,14.86S2,20,3,20H13c1,0,1.26-1.14,1.26-1.14L15,4ZM5,18a.52.52,0,0,1-.52-.5L4,6.5v0A.48.48,0,0,1,4.5,6,.52.52,0,0,1,5,6.5l.46,11v0A.48.48,0,0,1,5,18Zm3.5-.5a.5.5,0,0,1-1,0V6.5a.5.5,0,0,1,1,0Zm3,0A.52.52,0,0,1,11,18h0a.48.48,0,0,1-.46-.5L11,6.5A.52.52,0,0,1,11.5,6h0a.48.48,0,0,1,.46.5Z"/><path d="M14.89,1H12a1.11,1.11,0,0,0-1.1-1H5.11a1,1,0,0,0-.35.06A1.1,1.1,0,0,0,4,1H1.11A1.11,1.11,0,0,0,0,2.11V3H16V2.11A1.11,1.11,0,0,0,14.89,1Z"/></svg>