<svg xmlns="http://www.w3.org/2000/svg" viewBox="0 0 39.21 37.37"><defs><style>.a{fill:#ff5000;}</style></defs><title>home-orange</title><path class="a" d="M3.68,22.67V35.53a1.83,1.83,0,0,0,1.83,1.84H22.67V22.67H30v14.7h3.67a1.84,1.84,0,0,0,1.84-1.84V22.67L19.6,6.74ZM16.54,30H9.19V22.67h7.35ZM38.71,18.35h0l-6.86-6.86V6.13a1.84,1.84,0,1,0-3.67,0V7.81L21,.58h0A1.85,1.85,0,0,0,19.8,0h-.2a1.84,1.84,0,0,0-1.32.56L.56,18.28a1.84,1.84,0,0,0,1.28,3.16,1.82,1.82,0,0,0,1.29-.53h0L19.6,4.44h0l0,0h0L36.11,21h0a1.8,1.8,0,0,0,1.25.5,1.84,1.84,0,0,0,1.84-1.84A1.87,1.87,0,0,0,38.71,18.35Z"/></svg>