<svg xmlns="http://www.w3.org/2000/svg" viewBox="0 0 34 37.35"><defs><style>.a{fill:#777;}</style></defs><title>leaderboard-grey</title><path class="a" d="M32.51,2.23c-1.12-.85-2.7-1-4.7-.52,0-.5,0-.95,0-1.33A.39.39,0,0,0,27.4,0H6.6a.4.4,0,0,0-.4.38c0,.38,0,.83,0,1.33q-3-.75-4.7.52A4.42,4.42,0,0,0,.06,6.55c.55,4.08,4.49,9.63,10.23,12.32a11.13,11.13,0,0,0,3.64,3.32v.25A1.59,1.59,0,0,0,13,23.88v0a1.59,1.59,0,0,0,1,1.48v.69h0a12.2,12.2,0,0,1-3.24,4.12.39.39,0,0,0-.14.44.41.41,0,0,0,.38.27H23a.41.41,0,0,0,.38-.27.39.39,0,0,0-.14-.44A12.2,12.2,0,0,1,20,26.08V25.4A1.58,1.58,0,0,0,21,23.92v0a1.59,1.59,0,0,0-.94-1.44v-.25a11.13,11.13,0,0,0,3.64-3.32c5.74-2.69,9.68-8.24,10.22-12.32A4.4,4.4,0,0,0,32.51,2.23Zm-30,4c-.07-.57-.11-1.59.47-2s1.76-.39,3.29.09A36.58,36.58,0,0,0,8.14,14.68C5,12.19,2.84,8.79,2.49,6.22Zm29,0c-.34,2.56-2.46,6-5.64,8.46A36.58,36.58,0,0,0,27.75,4.27c1.52-.48,2.71-.52,3.28-.09S31.58,5.65,31.5,6.22Z"/><path class="a" d="M24.9,33H9.1a.39.39,0,0,0-.4.39V37a.39.39,0,0,0,.4.39H24.9a.39.39,0,0,0,.4-.39V33.38A.39.39,0,0,0,24.9,33Z"/></svg>