<svg xmlns="http://www.w3.org/2000/svg" viewBox="0 0 39.81 30.13"><defs><style>.a{fill:#777;}.b{fill:none;stroke:#777;stroke-miterlimit:10;stroke-width:1.5px;}</style></defs><title>more-grey_1</title><path class="a" d="M2.49,21.59h2l2.21,3.55L8.9,21.59h2V30H9.05V24.51L6.69,28.09H6.64L4.3,24.54V30H2.49Z"/><path class="a" d="M12.78,25.81v0a4.34,4.34,0,0,1,4.47-4.34,4.3,4.3,0,0,1,4.45,4.32v0a4.34,4.34,0,0,1-4.47,4.34A4.3,4.3,0,0,1,12.78,25.81Zm7,0v0a2.55,2.55,0,0,0-2.54-2.64,2.51,2.51,0,0,0-2.52,2.62v0a2.55,2.55,0,0,0,2.54,2.64A2.51,2.51,0,0,0,19.77,25.81Z"/><path class="a" d="M23.59,21.59h3.84a3.34,3.34,0,0,1,2.44.85,2.64,2.64,0,0,1,.72,1.92v0a2.61,2.61,0,0,1-1.8,2.6l2.05,3H28.68L26.89,27.3H25.43V30H23.59Zm3.72,4.08c.9,0,1.41-.48,1.41-1.19v0c0-.79-.55-1.2-1.45-1.2H25.43v2.41Z"/><path class="a" d="M32.5,21.59h6.34v1.65h-4.5v1.7h4v1.64h-4v1.76H38.9V30H32.5Z"/><circle class="b" cx="4.8" cy="4.8" r="4.05"/><circle class="b" cx="19.9" cy="4.8" r="4.05"/><circle class="b" cx="35.01" cy="4.8" r="4.05"/></svg>