<svg xmlns="http://www.w3.org/2000/svg" viewBox="0 0 44.66 37.69"><defs><style>.a{fill:#777;}</style></defs><title>reports-grey</title><path class="a" d="M20.24,31.4h4.19a2.09,2.09,0,0,0,2.09-2.09V11.86a2.1,2.1,0,0,0-2.09-2.09H20.24a2.09,2.09,0,0,0-2.09,2.09V29.31A2.08,2.08,0,0,0,20.24,31.4Zm11.86,0h4.19a2.08,2.08,0,0,0,2.09-2.09V2.09A2.09,2.09,0,0,0,36.29,0H32.1A2.1,2.1,0,0,0,30,2.09V29.31A2.09,2.09,0,0,0,32.1,31.4Zm-23.73,0h4.19a2.09,2.09,0,0,0,2.1-2.09V21.63a2.1,2.1,0,0,0-2.1-2.09H8.37a2.1,2.1,0,0,0-2.09,2.09v7.68A2.09,2.09,0,0,0,8.37,31.4Zm34.55,2.1H1.74A1.74,1.74,0,0,0,0,35.24v.7a1.74,1.74,0,0,0,1.74,1.75H42.92a1.74,1.74,0,0,0,1.74-1.75v-.7A1.74,1.74,0,0,0,42.92,33.5Z"/></svg>