<svg xmlns="http://www.w3.org/2000/svg" viewBox="0 0 55.65 38.43"><defs><style>.a{fill:#ff5000;}</style></defs><title>team-orange</title><path class="a" d="M55.65,33.18v5.25H18.4V33.18a3.69,3.69,0,0,1,1.34-2.88A60.46,60.46,0,0,1,29.38,24a70.32,70.32,0,0,0,3.72,7.48.12.12,0,0,0,.16.05.1.1,0,0,0,0-.05c.28-.83,1.34-3.71,3-3.51a.12.12,0,0,0,.13-.09.14.14,0,0,0,0-.1,51.09,51.09,0,0,1-5.52-4.89V19.48a8.35,8.35,0,0,1-1.06-2.88c-.4,0-.94-.58-1.52-2.63-.73-2.62,0-3.13.63-3.13C28.54,9.32,27.63,4,31.58,1.63A2.1,2.1,0,0,1,30.82,0,29.47,29.47,0,0,0,37.5.07,4.48,4.48,0,0,1,42.39,3s4.41,0,2.7,7.89c.69,0,1.44.44.68,3.12-.58,2-1.11,2.6-1.52,2.63a8.27,8.27,0,0,1-1.06,2.88v3.36a51.22,51.22,0,0,1-5.52,4.9.11.11,0,0,0,.09.19c1.63-.2,2.7,2.68,3,3.51a.12.12,0,0,0,.16.05.1.1,0,0,0,0-.05A68.35,68.35,0,0,0,44.65,24a59.52,59.52,0,0,1,9.66,6.37A3.73,3.73,0,0,1,55.65,33.18Zm-39.86,0a6.3,6.3,0,0,1,2.31-4.87c.69-.58,1.38-1.11,2.07-1.61A1.3,1.3,0,0,1,20,26v-1.6h0v-.55s4.83.15,7.12-2.19c0,0-3.33-.94-2.73-7s-.75-11.4-5.63-10.94c0,0-2.12-2.54-6.34-.94C11,3.37,7.08,4.74,7.27,13.16s-3,8.47-3,8.47S5.92,24,11.51,24v2.08a1.24,1.24,0,0,1-.58,1l-.12.07A36.53,36.53,0,0,1,5.57,29a17.83,17.83,0,0,0-3.31,1.24A4,4,0,0,0,0,33.45v5H15.79Z"/></svg>